<svg xmlns="http://www.w3.org/2000/svg" viewBox="0 0 165.31 61.4"><title>IBMLogo</title><g id="Layer_2" data-name="Layer 2"><g id="Layer_1-2" data-name="Layer 1"><path d="M87.5,49c-.45,3.94-1,4.38-4.65,4.38q-21.85,0-43.71,0c-.79,0-2.17-.22-2.26-.56a7.76,7.76,0,0,1,0-3.39c.06-.25,1.28-.4,2-.4q16.83,0,33.66,0Z"/><path d="M101.3,24.52c8.34,0,16.56-.07,24.78.1.89,0,1.74,1.37,2.73,2.21.37-3.16,3.12-2.3,5.38-2.31,7.21,0,14.41,0,21.81,0V28.7H142.54c-.09-.7-.17-1.36-.25-2-.85,2.94-3.36,2.16-5.46,2.17-5.9,0-11.8,0-17.69,0-1.76,0-3.76.42-4.1-2.13l-.36,2H101.3Z"/><path d="M36.87,8.11h45.8c3.84,0,4.2.31,4.86,4.26H36.87Z"/><path d="M36.78,61.4V57.3H82.65a15.33,15.33,0,0,1-10.08,3.93c-4.58.23-9.17.15-13.76.16-6.49,0-13,0-19.46,0Z"/><path d="M36.79,4.12v-4c.87,0,1.64-.1,2.42-.11q15,0,29.95,0A21.62,21.62,0,0,1,82.51,4.12Z"/><path d="M46.05,28.86V24.68h39c-2,2.41-3.7,4.33-7.3,4.25-9.67-.2-19.36-.07-29-.07Z"/><path d="M46.05,32.65H48.7c9.54,0,19.08.18,28.61-.1,3.65-.1,5.67,1.33,7.39,4.16H46.05Z"/><path d="M32,49.17v4.1H0v-4.1Z"/><path d="M.08,8.2H32v4.18H.08Z"/><path d="M.05,57.25H32v4H.05Z"/><path d="M32,.15V4.23H.08V.15Z"/><path d="M91.92,12.38V8.11H117.3c4.37,0,4.37,0,5.24,4.27Z"/><path d="M165.31,8.11v4.27H134.87c.18-3.58.9-4.27,4.46-4.27h26Z"/><path d="M91.89,4.19V.14C92.66.09,93.43,0,94.19,0H114.5c4.19,0,4.19,0,5,4.18Z"/><path d="M137.9,4.19a3.91,3.91,0,0,1,.07-.74C139.18,0,139.18,0,143,0h22.19V4.19Z"/><path d="M114.48,49a4,4,0,0,1,.31.65c.43,3.72.42,3.73-3.55,3.73h-19c-.21-.33-.33-.44-.34-.56C91.58,49,91.58,49,95.72,49Q105.1,49,114.48,49Z"/><path d="M165.31,49.13v4.12H142.53V49.13Z"/><path d="M131.41,20.5c.43-1.22.75-2.32,1.23-3.36a1.53,1.53,0,0,1,1.08-.76c7.41,0,14.82,0,22.35,0V20.5Z"/><path d="M101.11,20.53V16.45c.91,0,1.75-.11,2.59-.11h17c3.93,0,4.21.24,4.71,4.2Z"/><path d="M91.88,61.23V57.3h22.83v3.93Z"/><path d="M142.48,61.26v-4h22.81v4Z"/><path d="M117.8,32.77h21.51c-.08.39-.11.65-.19.9-1,3.33-1,3.33-4.65,3.33-4.08,0-8.17-.17-12.23.06-2.44.13-3.64-.68-4-2.8C118.11,33.8,118,33.36,117.8,32.77Z"/><path d="M88.31,45.08H73.6V40.85c4.32,0,8.66-.05,13,.07.47,0,1.09.88,1.31,1.47A12.27,12.27,0,0,1,88.31,45.08Z"/><path d="M136.18,41.06c0,.19.08.26.06.32-1.09,3.83-1.1,3.83-5.33,3.83-2,0-4-.12-5.9,0s-3.32-.41-3.64-2.42a12,12,0,0,0-.62-1.77Z"/><path d="M59.62,45.09H46.05V41H59.62Z"/><path d="M114.75,41v4H101.17V41Z"/><path d="M9.24,41H22.72V45H9.24Z"/><path d="M142.52,45.07V41H156v4.07Z"/><path d="M73.62,16.42H88.25a27.84,27.84,0,0,1-.72,3.38,1.61,1.61,0,0,1-1.21.81c-4.19.06-8.38,0-12.7,0Z"/><path d="M59.68,16.51v4H46.06v-4Z"/><path d="M101.2,32.78h13.48v4.07H101.2Z"/><path d="M22.77,24.68v4H9.24v-4Z"/><path d="M22.72,36.89H9.25V32.76H22.72Z"/><path d="M156,36.86H142.52V32.8H156Z"/><path d="M9.24,20.46v-4h13.5v4Z"/><path d="M133.13,49c-.95,4.42-.95,4.42-5.74,4.39-2.46,0-2.64-.24-3.46-4.39h9.2Z"/><path d="M130.48,57.13l-1.54,4.17-.53.08-1.77-4.09Z"/></g></g></svg>